<mxfile host="app.diagrams.net" modified="2022-07-14T16:14:53.512Z" agent="5.0 (Windows NT 10.0; Win64; x64) AppleWebKit/537.36 (KHTML, like Gecko) Chrome/103.0.0.0 Safari/537.36" etag="OWTBcX4Yj2cNle4Qbc4m" version="20.0.4" type="github">
  <diagram id="C5RBs43oDa-KdzZeNtuy" name="Page-1">
    <mxGraphModel dx="973" dy="711" grid="1" gridSize="10" guides="1" tooltips="1" connect="1" arrows="1" fold="1" page="1" pageScale="1" pageWidth="827" pageHeight="1169" math="0" shadow="0">
      <root>
        <mxCell id="WIyWlLk6GJQsqaUBKTNV-0" />
        <mxCell id="WIyWlLk6GJQsqaUBKTNV-1" parent="WIyWlLk6GJQsqaUBKTNV-0" />
        <mxCell id="TFBNbz36PjaEMDGP3xwY-1" value="navio" style="rounded=0;whiteSpace=wrap;html=1;" vertex="1" parent="WIyWlLk6GJQsqaUBKTNV-1">
          <mxGeometry x="340" y="110" width="120" height="60" as="geometry" />
        </mxCell>
        <mxCell id="TFBNbz36PjaEMDGP3xwY-4" value="tem" style="rhombus;whiteSpace=wrap;html=1;" vertex="1" parent="WIyWlLk6GJQsqaUBKTNV-1">
          <mxGeometry x="90" y="115" width="60" height="50" as="geometry" />
        </mxCell>
        <mxCell id="TFBNbz36PjaEMDGP3xwY-5" value="" style="endArrow=none;html=1;rounded=0;exitX=0;exitY=0.5;exitDx=0;exitDy=0;" edge="1" parent="WIyWlLk6GJQsqaUBKTNV-1" source="TFBNbz36PjaEMDGP3xwY-1" target="TFBNbz36PjaEMDGP3xwY-4">
          <mxGeometry width="50" height="50" relative="1" as="geometry">
            <mxPoint x="190" y="145" as="sourcePoint" />
            <mxPoint x="240" y="145" as="targetPoint" />
          </mxGeometry>
        </mxCell>
        <mxCell id="TFBNbz36PjaEMDGP3xwY-6" value="n" style="text;html=1;strokeColor=none;fillColor=none;align=center;verticalAlign=middle;whiteSpace=wrap;rounded=0;" vertex="1" parent="WIyWlLk6GJQsqaUBKTNV-1">
          <mxGeometry x="300" y="105" width="30" height="25" as="geometry" />
        </mxCell>
        <mxCell id="TFBNbz36PjaEMDGP3xwY-7" value="nome" style="ellipse;whiteSpace=wrap;html=1;" vertex="1" parent="WIyWlLk6GJQsqaUBKTNV-1">
          <mxGeometry x="550" y="140" width="90" height="50" as="geometry" />
        </mxCell>
        <mxCell id="TFBNbz36PjaEMDGP3xwY-10" value="capacidadeTotal" style="ellipse;whiteSpace=wrap;html=1;" vertex="1" parent="WIyWlLk6GJQsqaUBKTNV-1">
          <mxGeometry x="550" y="70" width="90" height="50" as="geometry" />
        </mxCell>
        <mxCell id="TFBNbz36PjaEMDGP3xwY-11" value="" style="endArrow=none;html=1;rounded=0;entryX=0;entryY=0.5;entryDx=0;entryDy=0;exitX=1;exitY=0.5;exitDx=0;exitDy=0;" edge="1" parent="WIyWlLk6GJQsqaUBKTNV-1" source="TFBNbz36PjaEMDGP3xwY-1" target="TFBNbz36PjaEMDGP3xwY-7">
          <mxGeometry width="50" height="50" relative="1" as="geometry">
            <mxPoint x="470" y="135" as="sourcePoint" />
            <mxPoint x="350" y="310" as="targetPoint" />
          </mxGeometry>
        </mxCell>
        <mxCell id="TFBNbz36PjaEMDGP3xwY-12" value="" style="endArrow=none;html=1;rounded=0;exitX=1;exitY=0.5;exitDx=0;exitDy=0;entryX=0;entryY=0.5;entryDx=0;entryDy=0;" edge="1" parent="WIyWlLk6GJQsqaUBKTNV-1" source="TFBNbz36PjaEMDGP3xwY-1" target="TFBNbz36PjaEMDGP3xwY-10">
          <mxGeometry width="50" height="50" relative="1" as="geometry">
            <mxPoint x="300" y="400" as="sourcePoint" />
            <mxPoint x="400" y="60" as="targetPoint" />
          </mxGeometry>
        </mxCell>
        <mxCell id="TFBNbz36PjaEMDGP3xwY-13" value="porto" style="rounded=0;whiteSpace=wrap;html=1;" vertex="1" parent="WIyWlLk6GJQsqaUBKTNV-1">
          <mxGeometry x="60" y="300" width="120" height="60" as="geometry" />
        </mxCell>
        <mxCell id="TFBNbz36PjaEMDGP3xwY-16" value="" style="endArrow=none;html=1;rounded=0;entryX=0.5;entryY=0;entryDx=0;entryDy=0;exitX=0.5;exitY=1;exitDx=0;exitDy=0;" edge="1" parent="WIyWlLk6GJQsqaUBKTNV-1" source="TFBNbz36PjaEMDGP3xwY-4" target="TFBNbz36PjaEMDGP3xwY-13">
          <mxGeometry width="50" height="50" relative="1" as="geometry">
            <mxPoint x="120" y="260" as="sourcePoint" />
            <mxPoint x="130" y="175" as="targetPoint" />
          </mxGeometry>
        </mxCell>
        <mxCell id="TFBNbz36PjaEMDGP3xwY-18" value="" style="endArrow=none;html=1;rounded=0;exitX=0.5;exitY=0;exitDx=0;exitDy=0;entryX=0.5;entryY=1;entryDx=0;entryDy=0;" edge="1" parent="WIyWlLk6GJQsqaUBKTNV-1" source="TFBNbz36PjaEMDGP3xwY-20" target="TFBNbz36PjaEMDGP3xwY-13">
          <mxGeometry width="50" height="50" relative="1" as="geometry">
            <mxPoint x="185" y="400" as="sourcePoint" />
            <mxPoint x="350" y="310" as="targetPoint" />
          </mxGeometry>
        </mxCell>
        <mxCell id="TFBNbz36PjaEMDGP3xwY-19" value="operario" style="rounded=0;whiteSpace=wrap;html=1;" vertex="1" parent="WIyWlLk6GJQsqaUBKTNV-1">
          <mxGeometry x="55" y="510" width="120" height="60" as="geometry" />
        </mxCell>
        <mxCell id="TFBNbz36PjaEMDGP3xwY-20" value="trabalha" style="rhombus;whiteSpace=wrap;html=1;" vertex="1" parent="WIyWlLk6GJQsqaUBKTNV-1">
          <mxGeometry x="45" y="410" width="60" height="50" as="geometry" />
        </mxCell>
        <mxCell id="TFBNbz36PjaEMDGP3xwY-21" value="" style="endArrow=none;html=1;rounded=0;exitX=0.5;exitY=0;exitDx=0;exitDy=0;entryX=0.5;entryY=1;entryDx=0;entryDy=0;" edge="1" parent="WIyWlLk6GJQsqaUBKTNV-1" source="TFBNbz36PjaEMDGP3xwY-19" target="TFBNbz36PjaEMDGP3xwY-20">
          <mxGeometry width="50" height="50" relative="1" as="geometry">
            <mxPoint x="130" y="410" as="sourcePoint" />
            <mxPoint x="130" y="370" as="targetPoint" />
          </mxGeometry>
        </mxCell>
        <mxCell id="TFBNbz36PjaEMDGP3xwY-22" value="contentor" style="rounded=0;whiteSpace=wrap;html=1;" vertex="1" parent="WIyWlLk6GJQsqaUBKTNV-1">
          <mxGeometry x="281" y="300" width="120" height="60" as="geometry" />
        </mxCell>
        <mxCell id="TFBNbz36PjaEMDGP3xwY-23" value="" style="endArrow=none;html=1;rounded=0;entryX=0.5;entryY=0;entryDx=0;entryDy=0;exitX=0.5;exitY=1;exitDx=0;exitDy=0;" edge="1" parent="WIyWlLk6GJQsqaUBKTNV-1" source="TFBNbz36PjaEMDGP3xwY-22" target="TFBNbz36PjaEMDGP3xwY-37">
          <mxGeometry width="50" height="50" relative="1" as="geometry">
            <mxPoint x="256" y="410" as="sourcePoint" />
            <mxPoint x="241" y="580" as="targetPoint" />
          </mxGeometry>
        </mxCell>
        <mxCell id="TFBNbz36PjaEMDGP3xwY-24" value="tem" style="rhombus;whiteSpace=wrap;html=1;" vertex="1" parent="WIyWlLk6GJQsqaUBKTNV-1">
          <mxGeometry x="311" y="210" width="60" height="50" as="geometry" />
        </mxCell>
        <mxCell id="TFBNbz36PjaEMDGP3xwY-25" value="" style="endArrow=none;html=1;rounded=0;entryX=0.5;entryY=1;entryDx=0;entryDy=0;exitX=0.5;exitY=0;exitDx=0;exitDy=0;" edge="1" parent="WIyWlLk6GJQsqaUBKTNV-1" source="TFBNbz36PjaEMDGP3xwY-24" target="TFBNbz36PjaEMDGP3xwY-1">
          <mxGeometry width="50" height="50" relative="1" as="geometry">
            <mxPoint x="300" y="360" as="sourcePoint" />
            <mxPoint x="350" y="310" as="targetPoint" />
          </mxGeometry>
        </mxCell>
        <mxCell id="TFBNbz36PjaEMDGP3xwY-26" value="" style="endArrow=none;html=1;rounded=0;exitX=0.5;exitY=0;exitDx=0;exitDy=0;entryX=0.5;entryY=1;entryDx=0;entryDy=0;" edge="1" parent="WIyWlLk6GJQsqaUBKTNV-1" source="TFBNbz36PjaEMDGP3xwY-22" target="TFBNbz36PjaEMDGP3xwY-24">
          <mxGeometry width="50" height="50" relative="1" as="geometry">
            <mxPoint x="366" y="220" as="sourcePoint" />
            <mxPoint x="340" y="270" as="targetPoint" />
          </mxGeometry>
        </mxCell>
        <mxCell id="TFBNbz36PjaEMDGP3xwY-28" value="1" style="text;html=1;strokeColor=none;fillColor=none;align=center;verticalAlign=middle;whiteSpace=wrap;rounded=0;" vertex="1" parent="WIyWlLk6GJQsqaUBKTNV-1">
          <mxGeometry x="371" y="185" width="30" height="25" as="geometry" />
        </mxCell>
        <mxCell id="TFBNbz36PjaEMDGP3xwY-29" value="n" style="text;html=1;strokeColor=none;fillColor=none;align=center;verticalAlign=middle;whiteSpace=wrap;rounded=0;" vertex="1" parent="WIyWlLk6GJQsqaUBKTNV-1">
          <mxGeometry x="300" y="262.5" width="30" height="25" as="geometry" />
        </mxCell>
        <mxCell id="TFBNbz36PjaEMDGP3xwY-31" value="n" style="text;html=1;strokeColor=none;fillColor=none;align=center;verticalAlign=middle;whiteSpace=wrap;rounded=0;" vertex="1" parent="WIyWlLk6GJQsqaUBKTNV-1">
          <mxGeometry x="115" y="262.5" width="30" height="25" as="geometry" />
        </mxCell>
        <mxCell id="TFBNbz36PjaEMDGP3xwY-32" value="n" style="text;html=1;strokeColor=none;fillColor=none;align=center;verticalAlign=middle;whiteSpace=wrap;rounded=0;" vertex="1" parent="WIyWlLk6GJQsqaUBKTNV-1">
          <mxGeometry x="100" y="465" width="30" height="25" as="geometry" />
        </mxCell>
        <mxCell id="TFBNbz36PjaEMDGP3xwY-33" value="1" style="text;html=1;strokeColor=none;fillColor=none;align=center;verticalAlign=middle;whiteSpace=wrap;rounded=0;" vertex="1" parent="WIyWlLk6GJQsqaUBKTNV-1">
          <mxGeometry x="105" y="372.5" width="30" height="25" as="geometry" />
        </mxCell>
        <mxCell id="TFBNbz36PjaEMDGP3xwY-34" value="destino" style="ellipse;whiteSpace=wrap;html=1;" vertex="1" parent="WIyWlLk6GJQsqaUBKTNV-1">
          <mxGeometry x="170" y="190" width="90" height="50" as="geometry" />
        </mxCell>
        <mxCell id="TFBNbz36PjaEMDGP3xwY-35" value="tipo" style="ellipse;whiteSpace=wrap;html=1;" vertex="1" parent="WIyWlLk6GJQsqaUBKTNV-1">
          <mxGeometry x="560" y="465" width="90" height="50" as="geometry" />
        </mxCell>
        <mxCell id="TFBNbz36PjaEMDGP3xwY-36" value="peso" style="ellipse;whiteSpace=wrap;html=1;" vertex="1" parent="WIyWlLk6GJQsqaUBKTNV-1">
          <mxGeometry x="460" y="465" width="90" height="50" as="geometry" />
        </mxCell>
        <mxCell id="TFBNbz36PjaEMDGP3xwY-37" value="numero" style="ellipse;whiteSpace=wrap;html=1;" vertex="1" parent="WIyWlLk6GJQsqaUBKTNV-1">
          <mxGeometry x="364" y="465" width="90" height="50" as="geometry" />
        </mxCell>
        <mxCell id="TFBNbz36PjaEMDGP3xwY-38" value="" style="endArrow=none;html=1;rounded=0;entryX=0.5;entryY=0;entryDx=0;entryDy=0;exitX=0.5;exitY=1;exitDx=0;exitDy=0;" edge="1" parent="WIyWlLk6GJQsqaUBKTNV-1" source="TFBNbz36PjaEMDGP3xwY-22" target="TFBNbz36PjaEMDGP3xwY-36">
          <mxGeometry width="50" height="50" relative="1" as="geometry">
            <mxPoint x="366" y="370" as="sourcePoint" />
            <mxPoint x="271" y="452.5" as="targetPoint" />
          </mxGeometry>
        </mxCell>
        <mxCell id="TFBNbz36PjaEMDGP3xwY-39" value="" style="endArrow=none;html=1;rounded=0;entryX=0.5;entryY=0;entryDx=0;entryDy=0;exitX=0.5;exitY=1;exitDx=0;exitDy=0;" edge="1" parent="WIyWlLk6GJQsqaUBKTNV-1" source="TFBNbz36PjaEMDGP3xwY-22" target="TFBNbz36PjaEMDGP3xwY-35">
          <mxGeometry width="50" height="50" relative="1" as="geometry">
            <mxPoint x="376" y="380" as="sourcePoint" />
            <mxPoint x="281" y="462.5" as="targetPoint" />
          </mxGeometry>
        </mxCell>
        <mxCell id="TFBNbz36PjaEMDGP3xwY-40" value="" style="endArrow=none;html=1;rounded=0;entryX=0.5;entryY=1;entryDx=0;entryDy=0;exitX=0;exitY=0;exitDx=0;exitDy=0;" edge="1" parent="WIyWlLk6GJQsqaUBKTNV-1" source="TFBNbz36PjaEMDGP3xwY-22" target="TFBNbz36PjaEMDGP3xwY-34">
          <mxGeometry width="50" height="50" relative="1" as="geometry">
            <mxPoint x="280" y="300" as="sourcePoint" />
            <mxPoint x="566" y="420" as="targetPoint" />
          </mxGeometry>
        </mxCell>
        <mxCell id="TFBNbz36PjaEMDGP3xwY-42" value="temperatura" style="rounded=0;whiteSpace=wrap;html=1;" vertex="1" parent="WIyWlLk6GJQsqaUBKTNV-1">
          <mxGeometry x="510" y="300" width="120" height="60" as="geometry" />
        </mxCell>
        <mxCell id="TFBNbz36PjaEMDGP3xwY-43" value="" style="endArrow=none;html=1;rounded=0;entryX=1;entryY=0.5;entryDx=0;entryDy=0;exitX=0;exitY=0.5;exitDx=0;exitDy=0;" edge="1" parent="WIyWlLk6GJQsqaUBKTNV-1" source="TFBNbz36PjaEMDGP3xwY-52" target="TFBNbz36PjaEMDGP3xwY-22">
          <mxGeometry width="50" height="50" relative="1" as="geometry">
            <mxPoint x="400" y="330" as="sourcePoint" />
            <mxPoint x="350" y="310" as="targetPoint" />
          </mxGeometry>
        </mxCell>
        <mxCell id="TFBNbz36PjaEMDGP3xwY-46" value="categoria" style="ellipse;whiteSpace=wrap;html=1;" vertex="1" parent="WIyWlLk6GJQsqaUBKTNV-1">
          <mxGeometry x="660" y="250" width="90" height="50" as="geometry" />
        </mxCell>
        <mxCell id="TFBNbz36PjaEMDGP3xwY-48" value="1a15_normal" style="ellipse;whiteSpace=wrap;html=1;" vertex="1" parent="WIyWlLk6GJQsqaUBKTNV-1">
          <mxGeometry x="660" y="305" width="90" height="50" as="geometry" />
        </mxCell>
        <mxCell id="TFBNbz36PjaEMDGP3xwY-49" value="" style="endArrow=none;html=1;rounded=0;entryX=0.078;entryY=0.8;entryDx=0;entryDy=0;exitX=1;exitY=0.5;exitDx=0;exitDy=0;entryPerimeter=0;" edge="1" parent="WIyWlLk6GJQsqaUBKTNV-1" source="TFBNbz36PjaEMDGP3xwY-42" target="TFBNbz36PjaEMDGP3xwY-46">
          <mxGeometry width="50" height="50" relative="1" as="geometry">
            <mxPoint x="380" y="360" as="sourcePoint" />
            <mxPoint x="430" y="310" as="targetPoint" />
          </mxGeometry>
        </mxCell>
        <mxCell id="TFBNbz36PjaEMDGP3xwY-50" value="" style="endArrow=none;html=1;rounded=0;entryX=0;entryY=0.5;entryDx=0;entryDy=0;exitX=1;exitY=0.5;exitDx=0;exitDy=0;" edge="1" parent="WIyWlLk6GJQsqaUBKTNV-1" source="TFBNbz36PjaEMDGP3xwY-42" target="TFBNbz36PjaEMDGP3xwY-48">
          <mxGeometry width="50" height="50" relative="1" as="geometry">
            <mxPoint x="611" y="340" as="sourcePoint" />
            <mxPoint x="670" y="275" as="targetPoint" />
          </mxGeometry>
        </mxCell>
        <mxCell id="TFBNbz36PjaEMDGP3xwY-52" value="tem" style="rhombus;whiteSpace=wrap;html=1;" vertex="1" parent="WIyWlLk6GJQsqaUBKTNV-1">
          <mxGeometry x="426" y="305" width="60" height="50" as="geometry" />
        </mxCell>
        <mxCell id="TFBNbz36PjaEMDGP3xwY-55" value="" style="endArrow=none;html=1;rounded=0;entryX=1;entryY=0.5;entryDx=0;entryDy=0;exitX=0;exitY=0.5;exitDx=0;exitDy=0;" edge="1" parent="WIyWlLk6GJQsqaUBKTNV-1" source="TFBNbz36PjaEMDGP3xwY-42" target="TFBNbz36PjaEMDGP3xwY-52">
          <mxGeometry width="50" height="50" relative="1" as="geometry">
            <mxPoint x="400" y="340" as="sourcePoint" />
            <mxPoint x="360" y="340" as="targetPoint" />
          </mxGeometry>
        </mxCell>
        <mxCell id="TFBNbz36PjaEMDGP3xwY-56" value="recebe" style="rhombus;whiteSpace=wrap;html=1;" vertex="1" parent="WIyWlLk6GJQsqaUBKTNV-1">
          <mxGeometry x="190" y="415" width="60" height="50" as="geometry" />
        </mxCell>
        <mxCell id="TFBNbz36PjaEMDGP3xwY-57" value="" style="endArrow=none;html=1;rounded=0;exitX=0.5;exitY=0;exitDx=0;exitDy=0;entryX=0;entryY=1;entryDx=0;entryDy=0;" edge="1" parent="WIyWlLk6GJQsqaUBKTNV-1" source="TFBNbz36PjaEMDGP3xwY-56" target="TFBNbz36PjaEMDGP3xwY-22">
          <mxGeometry width="50" height="50" relative="1" as="geometry">
            <mxPoint x="380" y="360" as="sourcePoint" />
            <mxPoint x="430" y="310" as="targetPoint" />
          </mxGeometry>
        </mxCell>
        <mxCell id="TFBNbz36PjaEMDGP3xwY-58" value="" style="endArrow=none;html=1;rounded=0;exitX=1;exitY=0;exitDx=0;exitDy=0;entryX=0.5;entryY=1;entryDx=0;entryDy=0;" edge="1" parent="WIyWlLk6GJQsqaUBKTNV-1" source="TFBNbz36PjaEMDGP3xwY-19" target="TFBNbz36PjaEMDGP3xwY-56">
          <mxGeometry width="50" height="50" relative="1" as="geometry">
            <mxPoint x="250" y="410" as="sourcePoint" />
            <mxPoint x="291" y="370" as="targetPoint" />
          </mxGeometry>
        </mxCell>
        <mxCell id="TFBNbz36PjaEMDGP3xwY-59" value="n" style="text;html=1;strokeColor=none;fillColor=none;align=center;verticalAlign=middle;whiteSpace=wrap;rounded=0;" vertex="1" parent="WIyWlLk6GJQsqaUBKTNV-1">
          <mxGeometry x="220" y="360" width="30" height="25" as="geometry" />
        </mxCell>
        <mxCell id="TFBNbz36PjaEMDGP3xwY-60" value="1" style="text;html=1;strokeColor=none;fillColor=none;align=center;verticalAlign=middle;whiteSpace=wrap;rounded=0;" vertex="1" parent="WIyWlLk6GJQsqaUBKTNV-1">
          <mxGeometry x="180" y="490" width="30" height="25" as="geometry" />
        </mxCell>
        <mxCell id="TFBNbz36PjaEMDGP3xwY-61" value="1" style="text;html=1;strokeColor=none;fillColor=none;align=center;verticalAlign=middle;whiteSpace=wrap;rounded=0;" vertex="1" parent="WIyWlLk6GJQsqaUBKTNV-1">
          <mxGeometry x="480" y="300" width="30" height="25" as="geometry" />
        </mxCell>
        <mxCell id="TFBNbz36PjaEMDGP3xwY-62" value="n" style="text;html=1;strokeColor=none;fillColor=none;align=center;verticalAlign=middle;whiteSpace=wrap;rounded=0;" vertex="1" parent="WIyWlLk6GJQsqaUBKTNV-1">
          <mxGeometry x="401" y="300" width="30" height="25" as="geometry" />
        </mxCell>
        <mxCell id="TFBNbz36PjaEMDGP3xwY-69" value="" style="endArrow=none;html=1;rounded=0;entryX=1;entryY=0;entryDx=0;entryDy=0;exitX=0.5;exitY=1;exitDx=0;exitDy=0;" edge="1" parent="WIyWlLk6GJQsqaUBKTNV-1" source="TFBNbz36PjaEMDGP3xwY-34" target="TFBNbz36PjaEMDGP3xwY-13">
          <mxGeometry width="50" height="50" relative="1" as="geometry">
            <mxPoint x="291" y="310" as="sourcePoint" />
            <mxPoint x="225" y="250" as="targetPoint" />
          </mxGeometry>
        </mxCell>
        <mxCell id="TFBNbz36PjaEMDGP3xwY-70" value="1" style="text;html=1;strokeColor=none;fillColor=none;align=center;verticalAlign=middle;whiteSpace=wrap;rounded=0;" vertex="1" parent="WIyWlLk6GJQsqaUBKTNV-1">
          <mxGeometry x="160" y="262.5" width="30" height="25" as="geometry" />
        </mxCell>
        <mxCell id="TFBNbz36PjaEMDGP3xwY-71" value="n" style="text;html=1;strokeColor=none;fillColor=none;align=center;verticalAlign=middle;whiteSpace=wrap;rounded=0;" vertex="1" parent="WIyWlLk6GJQsqaUBKTNV-1">
          <mxGeometry x="230" y="270" width="30" height="25" as="geometry" />
        </mxCell>
      </root>
    </mxGraphModel>
  </diagram>
</mxfile>
